<?xml version="1.0" encoding="iso-8859-1"?>
<!-- Generator: Adobe Illustrator 19.0.0, SVG Export Plug-In . SVG Version: 6.00 Build 0)  -->
<svg version="1.1" id="Layer_1" xmlns="http://www.w3.org/2000/svg" xmlns:xlink="http://www.w3.org/1999/xlink" x="0px" y="0px"
	 viewBox="0 0 470 470" style="enable-background:new 0 0 470 470;" xml:space="preserve">
<g>
	<g>
		<g>
			<path d="M432.5,40H299.441l-2.517-13.842C294.257,11.49,279.835,0,264.091,0h-58.182c-15.745,0-30.167,11.49-32.833,26.158
				L170.559,40H37.5C16.822,40,0,56.822,0,77.5v275C0,373.178,16.822,390,37.5,390h148.429l-5.578,29.151
				c-39.45,6.05-76.099,18.42-109.008,36.801c-2.981,1.665-4.461,5.133-3.601,8.438c0.86,3.304,3.844,5.61,7.258,5.61h320
				c3.415,0,6.398-2.306,7.258-5.61c0.86-3.304-0.62-6.772-3.601-8.438c-32.908-18.381-69.557-30.75-109.008-36.801L284.071,390
				H432.5c20.678,0,37.5-16.822,37.5-37.5v-275C470,56.822,453.178,40,432.5,40z M187.833,28.842
				C189.174,21.468,197.621,15,205.909,15h58.182c8.289,0,16.735,6.468,18.076,13.842L284.195,40h-98.391L187.833,28.842z
				 M362.421,455H107.579c25.042-10.497,52.255-17.915,80.161-21.768c3.186-0.44,5.736-2.862,6.34-6.02L201.201,390h67.598
				l7.12,37.212c0.604,3.158,3.155,5.58,6.34,6.02C310.163,437.085,337.382,444.504,362.421,455z M455,352.5
				c0,12.407-10.093,22.5-22.5,22.5H275.132c-0.026,0-0.052,0-0.077,0h-80.126c-0.018,0-0.036,0-0.054,0H37.5
				C25.093,375,15,364.907,15,352.5v-275C15,65.093,25.093,55,37.5,55h139.295c0.065,0,255.705,0,255.705,0
				c12.407,0,22.5,10.093,22.5,22.5V352.5z"/>
			<path d="M158.423,194.077c0,17.385,5.703,33.785,16.505,47.443l54.203,68.148c1.423,1.789,3.584,2.832,5.87,2.832
				c2.286,0,4.447-1.042,5.87-2.832l54.216-68.164c10.789-13.643,16.492-30.043,16.492-47.427c0-42.225-34.353-76.577-76.578-76.577
				C192.775,117.5,158.423,151.853,158.423,194.077z M296.578,194.077c0,13.973-4.584,27.156-13.244,38.106L235,292.952
				L186.68,232.2c-8.673-10.966-13.257-24.149-13.257-38.123c0-33.954,27.624-61.577,61.577-61.577
				C268.954,132.5,296.578,160.124,296.578,194.077z"/>
			<path d="M422.5,80h-375c-4.142,0-7.5,3.358-7.5,7.5v255c0,4.142,3.358,7.5,7.5,7.5h305c4.142,0,7.5-3.358,7.5-7.5
				c0-4.142-3.358-7.5-7.5-7.5H55V95h360v240h-32.5c-4.142,0-7.5,3.358-7.5,7.5c0,4.142,3.358,7.5,7.5,7.5h40
				c4.142,0,7.5-3.358,7.5-7.5v-255C430,83.358,426.642,80,422.5,80z"/>
			<path d="M253.286,418.303h-36.572c-4.142,0-7.5,3.358-7.5,7.5c0,4.142,3.358,7.5,7.5,7.5h36.572c4.142,0,7.5-3.358,7.5-7.5
				C260.786,421.661,257.428,418.303,253.286,418.303z"/>
			<path d="M198.423,194.078c0,20.169,16.409,36.577,36.578,36.577s36.577-16.408,36.577-36.577S255.169,157.5,235,157.5
				S198.423,173.909,198.423,194.078z M256.577,194.078c0,11.897-9.68,21.577-21.577,21.577c-11.898,0-21.578-9.68-21.578-21.577
				C213.423,182.18,223.103,172.5,235,172.5C246.897,172.5,256.577,182.18,256.577,194.078z"/>
		</g>
	</g>
</g>
<g>
</g>
<g>
</g>
<g>
</g>
<g>
</g>
<g>
</g>
<g>
</g>
<g>
</g>
<g>
</g>
<g>
</g>
<g>
</g>
<g>
</g>
<g>
</g>
<g>
</g>
<g>
</g>
<g>
</g>
</svg>
