<?xml version="1.0" encoding="iso-8859-1"?>
<!-- Generator: Adobe Illustrator 19.0.0, SVG Export Plug-In . SVG Version: 6.00 Build 0)  -->
<svg version="1.1" id="Layer_1" xmlns="http://www.w3.org/2000/svg" xmlns:xlink="http://www.w3.org/1999/xlink" x="0px" y="0px"
	 viewBox="0 0 512 512" style="enable-background:new 0 0 512 512;" xml:space="preserve">
<g>
	<g>
		<path d="M409.6,153.6h-384C11.46,153.6,0,165.06,0,179.2v230.4c0,14.14,11.46,25.6,25.6,25.6h153.6v51.2h-59.733V512h196.267
			v-25.6H256v-51.2h153.6c14.14,0,25.6-11.46,25.6-25.6V179.2C435.2,165.06,423.74,153.6,409.6,153.6z M230.4,486.4h-25.6v-51.2
			h25.6V486.4z M409.6,409.6h-384V179.2h384V409.6z"/>
	</g>
</g>
<g>
	<g>
		<rect x="332.8" y="51.2" width="128" height="25.6"/>
	</g>
</g>
<g>
	<g>
		<rect x="332.8" y="102.4" width="128" height="25.6"/>
	</g>
</g>
<g>
	<g>
		<path d="M486.4,0H307.2c-14.14,0-25.6,11.46-25.6,25.6V128h25.6V25.6h179.2v460.8H341.333V512H486.4c14.14,0,25.6-11.46,25.6-25.6
			V25.6C512,11.46,500.54,0,486.4,0z"/>
	</g>
</g>
<g>
</g>
<g>
</g>
<g>
</g>
<g>
</g>
<g>
</g>
<g>
</g>
<g>
</g>
<g>
</g>
<g>
</g>
<g>
</g>
<g>
</g>
<g>
</g>
<g>
</g>
<g>
</g>
<g>
</g>
</svg>
