<svg id="Capa_1" enable-background="new 0 0 505.914 505.914" height="512" viewBox="0 0 505.914 505.914" width="512" xmlns="http://www.w3.org/2000/svg"><path d="m475.914 375.218c16.542 0 30-13.458 30-30v-119.104c0-16.542-13.458-30-30-30h-188.126c-5.088-59.316-54.986-106.034-115.598-106.034s-110.51 46.717-115.599 106.034h-26.591c-16.542 0-30 13.458-30 30v119.104c0 16.542 13.458 30 30 30h14.603c.119 7.529 2.255 14.576 5.903 20.616h-40.506c-12.84 0-12.858 20 0 20h202.05c12.84 0 12.858-20 0-20h-90.832c3.648-6.04 5.784-13.087 5.903-20.616h251.672c.119 7.529 2.255 14.576 5.903 20.616h-92.031c-12.84 0-12.858 20 0 20h203.249c12.84 0 12.858-20 0-20h-40.506c3.648-6.04 5.784-13.087 5.903-20.616zm-303.724-265.138c52.953 0 96.033 43.081 96.033 96.034s-43.08 96.033-96.033 96.033-96.034-43.08-96.034-96.033 43.081-96.034 96.034-96.034zm-142.19 245.138c-5.514 0-10-4.486-10-10v-119.104c0-5.514 4.486-10 10-10h26.592c5.088 59.316 54.986 106.033 115.599 106.033 60.611 0 110.51-46.717 115.598-106.033h188.126c5.514 0 10 4.486 10 10v119.104c0 5.514-4.486 10-10 10zm55.862 40.616c-11.512 0-20.917-9.188-21.267-20.616h42.532c-.349 11.427-9.754 20.616-21.265 20.616zm334.191 0c-11.512 0-20.917-9.188-21.267-20.616h42.532c-.349 11.427-9.755 20.616-21.265 20.616z"/><path d="m172.19 279.734c40.595 0 73.62-33.025 73.62-73.62 0-40.594-33.025-73.62-73.62-73.62s-73.62 33.026-73.62 73.62c0 40.595 33.026 73.62 73.62 73.62zm0-127.24c29.566 0 53.62 24.054 53.62 53.62s-24.054 53.62-53.62 53.62-53.62-24.054-53.62-53.62 24.054-53.62 53.62-53.62z"/><path d="m377.776 275.734h73.552c12.84 0 12.858-20 0-20h-73.552c-12.84 0-12.858 20 0 20z"/><path d="m337.366 314.97h113.962c12.84 0 12.858-20 0-20h-113.962c-12.84 0-12.858 20 0 20z"/><path d="m328.13 269.555c1.609 3.928 5.739 6.477 9.973 6.148 4.26-.331 7.909-3.398 8.957-7.54 2.143-8.467-7.372-15.481-14.829-11.009-4.187 2.512-5.984 7.887-4.101 12.401z"/><path d="m261.659 402.006c-2.097-5.03-8.008-7.492-13.05-5.41-5.035 2.079-7.507 8.033-5.41 13.061 2.098 5.031 8.003 7.494 13.05 5.41 5.053-2.087 7.475-8.02 5.41-13.061z"/></svg>